<svg width="42" height="42" fill="none" xmlns="http://www.w3.org/2000/svg"><path d="M11.156 32.156a4.922 4.922 0 100-9.843 4.922 4.922 0 000 9.843z" fill="#221A3B"/><path d="M2.543 40.77c0 .68.55 1.23 1.23 1.23H18.54c.68 0 1.23-.55 1.23-1.23 0-4.75-3.864-8.614-8.613-8.614s-8.613 3.865-8.613 8.614zm28.301-8.614a4.922 4.922 0 100-9.843 4.922 4.922 0 000 9.843z" fill="#221A3B"/><path d="M22.23 40.77c0 .68.55 1.23 1.23 1.23h14.767c.68 0 1.23-.55 1.23-1.23 0-4.75-3.864-8.614-8.613-8.614-4.75 0-8.614 3.865-8.614 8.614zM38.309 0H3.69A3.695 3.695 0 000 3.691v9.844a3.695 3.695 0 003.691 3.692h4.413l2.1 2.1c.48.48 1.26.48 1.74 0l2.1-2.1h13.911l2.1 2.1c.481.48 1.26.48 1.74 0l2.101-2.1h4.413A3.696 3.696 0 0042 13.535V3.691A3.695 3.695 0 0038.309 0zM15.996 12.305H6.152a1.23 1.23 0 110-2.461h9.844a1.23 1.23 0 110 2.46zm0-4.922H6.152a1.23 1.23 0 110-2.461h9.844a1.23 1.23 0 110 2.46zm19.852 4.922h-9.844a1.23 1.23 0 110-2.461h9.844a1.23 1.23 0 110 2.46zm0-4.922h-9.844a1.23 1.23 0 110-2.461h9.844a1.23 1.23 0 110 2.46z" fill="#221A3B"/></svg>