<svg width="68" height="68" fill="none" xmlns="http://www.w3.org/2000/svg"><rect x=".5" y=".5" width="67" height="67" rx="9.5" fill="#5BCCA7" fill-opacity=".2" stroke="#5BCCA7"/><g clip-path="url(#clip0)" fill="#5BCCA7"><path d="M48.075 18.23c0-.68-.55-1.23-1.231-1.23h-3.691v5.004h4.922V18.23zM16 22.004h24.692V17h-23.46A1.23 1.23 0 0016 18.23v3.774zm0 23.46c0 .68.551 1.23 1.231 1.23H35.77c0-5.427 4.416-9.843 9.843-9.843.855 0 1.67.144 2.461.35V24.465H16.001v21zm20.263-13.78a1.228 1.228 0 01-.247-1.723 1.232 1.232 0 011.722-.246l4.922 3.691a1.23 1.23 0 010 1.968l-4.922 3.692a1.229 1.229 0 01-1.722-.247 1.228 1.228 0 01.247-1.721l3.608-2.708-3.608-2.707zm-6.582 6.008l2.461-7.382a1.23 1.23 0 112.334.779l-2.461 7.382a1.23 1.23 0 11-2.334-.779zm-8.184-4.286l4.922-3.691a1.226 1.226 0 011.722.246 1.228 1.228 0 01-.246 1.722l-3.609 2.707 3.608 2.708a1.229 1.229 0 11-1.476 1.968l-4.92-3.692a1.23 1.23 0 010-1.968z"/><path d="M52.996 46.695c0-4.071-3.311-7.383-7.383-7.383-4.07 0-7.382 3.312-7.382 7.383 0 4.07 3.311 7.383 7.383 7.383 4.07 0 7.382-3.312 7.382-7.383zm4.284 11.583a2.462 2.462 0 000-3.48l-3.218-3.134a9.85 9.85 0 01-3.48 3.48l3.217 3.134a2.459 2.459 0 003.48 0z"/></g><defs><clipPath id="clip0"><path fill="#fff" transform="translate(16 17)" d="M0 0h42v42H0z"/></clipPath></defs></svg>