<svg width="68" height="68" fill="none" xmlns="http://www.w3.org/2000/svg"><rect x=".5" y=".5" width="67" height="67" rx="9.5" fill="#5BCCA7" fill-opacity=".2" stroke="#5BCCA7"/><path d="M24.156 45.156a4.922 4.922 0 100-9.843 4.922 4.922 0 000 9.843z" fill="#5BCCA7"/><path d="M15.543 53.77c0 .68.55 1.23 1.23 1.23H31.54c.68 0 1.23-.55 1.23-1.23 0-4.75-3.864-8.614-8.613-8.614s-8.613 3.865-8.613 8.614zm28.301-8.614a4.922 4.922 0 100-9.843 4.922 4.922 0 000 9.843z" fill="#5BCCA7"/><path d="M35.23 53.77c0 .68.55 1.23 1.23 1.23h14.767c.68 0 1.23-.55 1.23-1.23 0-4.75-3.864-8.614-8.613-8.614-4.75 0-8.614 3.865-8.614 8.614zM51.309 13H16.69A3.696 3.696 0 0013 16.691v9.844a3.696 3.696 0 003.691 3.692h4.413l2.1 2.1c.48.48 1.26.48 1.74 0l2.1-2.1h13.911l2.1 2.1c.481.48 1.26.48 1.74 0l2.101-2.1h4.413A3.696 3.696 0 0055 26.535v-9.844A3.696 3.696 0 0051.309 13zM28.996 25.305h-9.844a1.23 1.23 0 110-2.461h9.844a1.23 1.23 0 110 2.46zm0-4.922h-9.844a1.23 1.23 0 110-2.461h9.844a1.23 1.23 0 110 2.46zm19.852 4.922h-9.844a1.23 1.23 0 110-2.461h9.844a1.23 1.23 0 110 2.46zm0-4.922h-9.844a1.23 1.23 0 110-2.461h9.844a1.23 1.23 0 110 2.46z" fill="#5BCCA7"/></svg>