<svg width="68" height="68" fill="none" xmlns="http://www.w3.org/2000/svg"><rect x=".5" y=".5" width="67" height="67" rx="9.5" fill="#5BCCA7" fill-opacity=".2" stroke="#5BCCA7"/><path d="M53.075 13.35c-.175-.175-.35-.35-.7-.35h-36.75c-.175 0-.525.175-.7.35-.175.175-.175.35-.175.7l3.5 35c0 .35.35.7.525.7L34.525 55h.7l14-5.25c.35-.175.525-.35.525-.7l3.5-35c0-.175 0-.525-.175-.7zM34 44.675c0 .175-.175.525-.35.7-.175.175-.36.198-.535.198l-.165-.023-6.125-1.75c-.35-.175-.525-.35-.7-.7l-.875-4.375c-.175-.525.175-.875.7-1.05.525-.175.875.175 1.05.7l.7 3.85 4.55 1.225V23.675h-9.625c-.525 0-.875-.35-.875-.875s.35-.875.875-.875h10.5c.525 0 .875.35.875.875v21.875zm12.25-21.7l-.875 3.5c-.175.525-.532.784-1.05.7-.546-.089-.755-.528-.7-1.05.066-.623.525-2.45.525-2.45h-6.825v8.75h6.125c.175 0 .525.175.7.35.175.175.175.525.175.7l-1.75 9.625c0 .35-.35.525-.525.7l-5.25 1.75c-.175 0-.81.242-1.225-.525-.175-.525.175-.875.525-1.05l4.725-1.575 1.4-8.05h-5.95c-.525 0-.875-.35-.875-.875v-10.5c0-.525.35-.875.875-.875h8.75c.35 0 .59.075.818.17.485.2.407.53.407.705z" fill="#5BCCA7"/></svg>