<svg width="30" height="20" fill="none" xmlns="http://www.w3.org/2000/svg"><g clip-path="url(#clip0)" fill="#fff"><path d="M19.886 10.154L30 16.547V3.49l-10.114 6.664zM0 3.49v13.057l10.114-6.393L0 3.49zM28.125-.313H1.875C.939-.313.197.385.056 1.284L15 11.13l14.944-9.846c-.141-.898-.883-1.595-1.82-1.595zm-9.956 11.599l-2.653 1.748a.937.937 0 01-1.032 0l-2.653-1.75L.061 18.73c.143.89.882 1.582 1.814 1.582h26.25c.932 0 1.67-.691 1.815-1.582l-11.77-7.444z"/></g><defs><clipPath id="clip0"><path fill="#fff" d="M0 0h30v20H0z"/></clipPath></defs></svg>