<svg width="30" height="30" viewBox="0 0 23 30" fill="none" xmlns="http://www.w3.org/2000/svg"><path d="M11.082 0C4.972 0 0 4.971 0 11.082c0 2.012.902 4.175.94 4.267a17.88 17.88 0 001.281 2.395l7.598 11.514c.311.472.772.742 1.263.742.492 0 .952-.27 1.263-.742l7.599-11.514c.415-.63.99-1.704 1.28-2.395.039-.09.94-2.255.94-4.267C22.164 4.972 17.193 0 11.082 0zm8.94 14.843c-.26.62-.794 1.62-1.167 2.184L11.256 28.54c-.15.228-.197.228-.347 0l-7.6-11.513a16.378 16.378 0 01-1.167-2.185c-.011-.027-.838-2.018-.838-3.76 0-5.392 4.386-9.778 9.778-9.778s9.778 4.386 9.778 9.778c0 1.745-.829 3.741-.837 3.76z" fill="#fff"/><path d="M11.082 5.216a5.874 5.874 0 00-5.867 5.867 5.874 5.874 0 005.867 5.867 5.874 5.874 0 005.867-5.867 5.874 5.874 0 00-5.867-5.867zm0 10.43a4.569 4.569 0 01-4.563-4.563 4.569 4.569 0 014.563-4.563 4.569 4.569 0 014.563 4.563 4.569 4.569 0 01-4.563 4.563z" fill="#fff"/></svg>