<svg width="30" height="30" fill="none" xmlns="http://www.w3.org/2000/svg"><g clip-path="url(#clip0)"><path d="M29.183 22.017l-4.186-4.187c-1.495-1.495-4.037-.897-4.635 1.047-.449 1.346-1.944 2.093-3.29 1.794-2.99-.747-7.027-4.635-7.775-7.775-.448-1.346.449-2.84 1.794-3.29 1.944-.597 2.542-3.14 1.047-4.634L7.951.785c-1.196-1.047-2.99-1.047-4.037 0l-2.84 2.84c-2.841 2.991.299 10.916 7.326 17.943 7.027 7.028 14.952 10.317 17.943 7.327l2.84-2.841c1.047-1.196 1.047-2.99 0-4.037z" fill="#fff"/></g><defs><clipPath id="clip0"><path fill="#fff" d="M0 0h30v30H0z"/></clipPath></defs></svg>