<svg width="68" height="68" fill="none" xmlns="http://www.w3.org/2000/svg"><rect x=".5" y=".5" width="67" height="67" rx="9.5" fill="#5BCCA7" fill-opacity=".2" stroke="#5BCCA7"/><path d="M48.937 35.42H45.69c.331.907.512 1.885.512 2.905v12.276c0 .425-.074.833-.209 1.213h5.37A3.642 3.642 0 0055 48.176v-6.692a6.07 6.07 0 00-6.063-6.063zM21.8 38.325c0-1.02.18-1.998.511-2.904h-3.248A6.07 6.07 0 0013 41.484v6.692a3.642 3.642 0 003.638 3.638h5.37a3.621 3.621 0 01-.209-1.213V38.325zm15.913-6.063h-7.426a6.07 6.07 0 00-6.063 6.063v12.276c0 .67.543 1.213 1.213 1.213h17.126c.67 0 1.213-.543 1.213-1.213V38.325a6.07 6.07 0 00-6.063-6.063zM34 16.186c-4.02 0-7.291 3.271-7.291 7.292A7.296 7.296 0 0034 30.769a7.296 7.296 0 007.291-7.291c0-4.021-3.27-7.292-7.291-7.292zm-12.804 6.796a5.46 5.46 0 00-5.453 5.453 5.46 5.46 0 005.453 5.453c.763 0 1.49-.158 2.15-.442a5.487 5.487 0 002.663-2.45 5.417 5.417 0 00.64-2.56 5.46 5.46 0 00-5.453-5.454zm25.608 0a5.46 5.46 0 00-5.453 5.453c0 .926.232 1.798.64 2.562a5.486 5.486 0 002.664 2.45 5.44 5.44 0 002.149.441 5.46 5.46 0 005.453-5.453 5.46 5.46 0 00-5.453-5.453z" fill="#5BCCA7"/></svg>
